<svg xmlns="http://www.w3.org/2000/svg" xmlns:xlink="http://www.w3.org/1999/xlink" width="419.851" height="420.683" viewBox="0 0 419.851 420.683">
  <defs>
    <clipPath id="clip-path">
      <path id="Mask" d="M213.2,402.579A157.7,157.7,0,0,0,332.16,348.623c15.249-17.412,54.9,22.9,61.347,0,1.411-5.016,20.4-67.85,0-125.242C358.521,124.969,274.257,0,213.2,0,94.3,0-55.881,365.073,21.006,402.579c45.922,22.4,76.047-50.5,82.172-44.563A157.56,157.56,0,0,0,213.2,402.579Z" transform="translate(0)" fill="none"/>
    </clipPath>
  </defs>
  <g id="Column" transform="matrix(0.999, 0.035, -0.035, 0.999, 65.829, 40.512)">
    <g id="Human" transform="translate(-53.012 -38.79)">
      <path id="Background" d="M156.579,0c86.476,0,156.579,70.041,156.579,156.441s-70.1,156.441-156.579,156.441S0,242.842,0,156.441,70.1,0,156.579,0Z" transform="translate(57.693 89.735)" fill="#fdac27"/>
      <path id="Mask-2" data-name="Mask" d="M213.2,402.579A157.7,157.7,0,0,0,332.16,348.623c15.249-17.412,54.9,22.9,61.347,0,1.411-5.016,20.4-67.85,0-125.242C358.521,124.969,274.257,0,213.2,0,94.3,0-55.881,365.073,21.006,402.579c45.922,22.4,76.047-50.5,82.172-44.563A157.56,157.56,0,0,0,213.2,402.579Z" transform="translate(2.998 0)" fill="none"/>
      <g id="Human-2" data-name="Human" transform="translate(0 0.105)" clip-path="url(#clip-path)">
        <g id="humaaan-3" transform="translate(-34.471 -17.222)">
          <g id="Head_Front" data-name="Head/Front" transform="matrix(0.998, -0.07, 0.07, 0.998, 202.986, 54.34)">
            <g id="Head" transform="translate(0.177 3.094)">
              <path id="Head-2" data-name="Head" d="M0,114.035,13.14,53.877C5.813,45.428.852,35.073,1.68,23.471,4.069-9.959,51.449-2.6,60.664,14.268s8.122,59.672-3.789,62.687c-4.751,1.2-14.87-1.743-25.169-7.841l6.465,44.92Z" transform="translate(0 0)" fill="#cea37c"/>
            </g>
            <path id="Hair" d="M32.136,70.376C29.572,62.77,28.6,40.872,28.358,34.4a9.815,9.815,0,0,0-1.145-.067,9.458,9.458,0,0,0-9.542,9.373,9.263,9.263,0,0,0,2.874,6.7c-2.209,3.061-4.682,6.259-7.518,9.559C2.375,53.695-5.529,35.318,4.885,17.665,7.764,9.018,14.281,4.4,21.978,2.254A28.154,28.154,0,0,1,40.148.938c10.71.9,20.273,4.111,22.984,6.016,0,9.958-1.965,12.913-18.746,12.653-4.123,2.139-7.294,5.821-10.595,10.65.024.322,2.242,29.987,11.6,29.987,9.4,0,17.381-5.864,21.508-5.864,3.007,0,2.336,3.7.342,6.438-1.645,2.262-9.655,4.441-9.655,7.948,0,1.98,2.018,1.977,3.775,1.973,1.354,0,2.554,0,2.554.9,0,3.439,1.114,9.906-4.966,9.906C52.794,81.545,35.158,79.343,32.136,70.376Z" transform="translate(0 0)" fill="#191847"/>
          </g>
          <g id="Bottom_Skinny_Jeans_1" data-name="Bottom/Skinny Jeans 1" transform="translate(40.398 268.866)">
            <path id="Leg" d="M0,0,73.847,178.74l49.53,151.109h19.558L67.215,0Z" transform="translate(161.215 0)" fill="#997659"/>
            <path id="Leg-2" data-name="Leg" d="M140.589,0C139.8,62.81,128.334,147.374,126.5,151.29S0,250.869,0,250.869l13.471,13.785s147.1-82.02,153.906-92.959S196.345,60.09,214.138,0Z" transform="translate(5.756 0)" fill="#b28b67"/>
            <g id="Left_Shoe" data-name="Left Shoe" transform="translate(30.642 219.822) rotate(50)">
              <path id="shoe" d="M4.474,5.033A2,2,0,0,0,1.908,6.381L0,13.106A64.242,64.242,0,0,0,.9,21H57.3s2.2-7.268-2.538-7.848-7.87-1.047-7.87-1.047L20.68.419a1,1,0,0,0-1.332.532L17.663,5.039s-4.385,2.046-7.127,2.046Z" transform="translate(1 19)" fill="#e4e4e4"/>
            </g>
            <g id="Right_Shoe" data-name="Right Shoe" transform="translate(272.554 286.325)">
              <path id="shoe-2" data-name="shoe" d="M6.731,7.1a3.035,3.035,0,0,0-3.859,1.94L0,18.711A88.575,88.575,0,0,0,1.356,30.069H86.217S89.525,19.612,82.4,18.778s-11.841-1.506-11.841-1.506L31.115.457a1.531,1.531,0,0,0-2,.766L26.576,7.1s-6.6,2.944-10.722,2.944Z" transform="translate(1.505 27.483)" fill="#e4e4e4"/>
            </g>
            <path id="Pant" d="M59.214,314.285l92.99-9.651L83.287,0H0Z" transform="translate(151.652 0)" fill="#69a1ac"/>
            <path id="Pant-2" data-name="Pant" d="M0,228.629l61,69.042s96.368-100.651,112.366-131.35S202.123,0,202.123,0H108.357s-6.973,119.315-9.4,124.867S0,228.629,0,228.629Z" transform="translate(24.991)" fill="#2393c2"/>
          </g>
          <g id="Body_Long_Sleeve_1" data-name="Body/Long Sleeve 1" transform="matrix(0.998, 0.07, -0.07, 0.998, 114.278, 128.016)">
            <path id="Skin" d="M1.572,111.015c-1.43-.88-3-4.2.789-6.786C11.8,97.775,25.393,86.48,27.23,82.762,30.988,75.156,43.785,1.034,43.785,1.034l26.8.105s-24.819,79.926-26.8,84.817c-2.967,7.336,3.311,18.509,6,24.512-4.233,1.888-6.2-.523-8.351-2.934-2.295-2.571-4.8-5.143-10.495-2.5-7.284,3.381-13.306,8.747-20.485,8.747A16.687,16.687,0,0,1,1.572,111.015ZM232.3,39.055,191.791,22.3,200.832,0l40.9,29.964q16.641,4.481,27.806,11.147c1.759,1.6,3.883,4.836-3.408,4.276s-14.987-.821-15.993,1.66,3.406,5.449,1.372,8.8a.968.968,0,0,1-.888.477Q247.03,56.321,232.3,39.055Z" transform="translate(0 122.453)" fill="#cba079"/>
            <path id="Coat_Back" data-name="Coat Back" d="M0,2.856,10.88,0C54.955,31.733,77.725,98.113,131.106,129.662l-10.783,16.01C32.23,142.532,3.388,61.658,0,2.856Z" transform="matrix(0.996, 0.087, -0.087, 0.996, 120.186, 8.47)" fill="#f8d048"/>
            <path id="Shirt" d="M0,145.832H98.111c4.483,0,3.638-6.458,2.99-9.717C93.622,98.505,64.425,57.964,64.425,4.427L36.125,0C12.717,37.556,4.622,83.8,0,145.832Z" transform="translate(71.601 4.494)" fill="#dde3e9"/>
            <path id="Coat_Front" data-name="Coat Front" d="M.13,204.053C-2.133,131.037,25.579,74.847,48.77,40.968c-5.15-.367-9.8-2.517-12.736-7.805C25.692,14.544,29.426,4.293,40.481.923S61.393,4.494,79.005,4.494a13.759,13.759,0,0,1,2.1.149l9.391.534s38.127,128.908,21.031,172.012H33.979a245.22,245.22,0,0,1-12.807,26.863Z" transform="translate(26.59 0)" fill="#f1c635"/>
            <path id="Shade" d="M28.984,46.751H0C5.316,34.015,11.179,18.286,17.427,0c2.6,22.535,6.489,38.264,11.555,46.749Z" transform="translate(60.569 130.439)" fill="rgba(0,0,0,0.1)"/>
          </g>
        </g>
      </g>
    </g>
  </g>
</svg>
