<svg xmlns="http://www.w3.org/2000/svg" xmlns:xlink="http://www.w3.org/1999/xlink" width="611.175" height="1228.047" viewBox="0 0 611.175 1228.047">
  <defs>
    <clipPath id="clip-path">
      <path id="screen" d="M477.257,1228.815H56.985A56.938,56.938,0,0,1,0,1171.829V128.987A56.938,56.938,0,0,1,56.985,72h54.138a7.133,7.133,0,0,1,7.123,7v4.4a31.316,31.316,0,0,0,31.342,31.343H387.5A28.47,28.47,0,0,0,416,86.246V79.123A7.133,7.133,0,0,1,423.113,72h54.144a56.939,56.939,0,0,1,56.985,56.987V1171.829a56.937,56.937,0,0,1-56.985,56.985Z" transform="translate(0 -72)" fill="#dedee4"/>
    </clipPath>
  </defs>
  <g id="white-mockup" transform="translate(-243 -219)">
    <g id="phone" transform="translate(243 219)">
      <path id="body" d="M91.177,243.047A85.479,85.479,0,0,1,5.7,157.569v-689.53a5.7,5.7,0,0,1-5.7-5.7v-76.931a5.7,5.7,0,0,1,5.7-5.7v-22.795a5.7,5.7,0,0,1-5.7-5.7v-76.931a5.7,5.7,0,0,1,5.7-5.7v-42.739a5.7,5.7,0,0,1-5.7-5.7v-34.192a5.7,5.7,0,0,1,5.7-5.7v-79.78A85.478,85.478,0,0,1,91.177-985H520a85.477,85.477,0,0,1,85.478,85.478v198.027a5.7,5.7,0,0,1,5.7,5.7v128.218a5.7,5.7,0,0,1-5.7,5.7V157.569A85.478,85.478,0,0,1,520,243.047Z" transform="translate(0 985)" fill="#f2f2f5"/>
      <path id="camera" d="M142.452-957.453A8.546,8.546,0,0,1,151-966a8.547,8.547,0,0,1,8.548,8.547A8.549,8.549,0,0,1,151-948.9,8.547,8.547,0,0,1,142.452-957.453Zm-91.177,4.275A4.275,4.275,0,0,1,47-957.453a4.274,4.274,0,0,1,4.275-4.274h66.958a4.273,4.273,0,0,1,4.274,4.274,4.274,4.274,0,0,1-4.274,4.275Z" transform="translate(220.834 1005.89)" fill="#dedee4"/>
    </g>
  </g>
</svg>
